# xmcd
#
# Track frame offsets:
#	150
#	27227
#	34888
#	57475
#	61746
#	78156
#	92676
#	106757
#	120330
#	140728
#	151671
#	174799
#	186649
#	199387
#	213960
#	228171
#	242876
#	254557
#
# Disc length: 3495
#
# Revision: 3
# Processed by: cddbd v1.5.1PL0 Copyright (c) Steve Scherf et al.
# Submitted via: dBpowerAMP V4.0
# Normalized: r2:TSWAP
#
DISCID=f00da512
DTITLE=Various Artist - The Natural Blues II - The Blues Makers - CD 2
DYEAR=2001
DGENRE=Blues
TTITLE0=Djeli Moussa Diawara and Bob Brozman - Maloyan Devil
TTITLE1=Masai Tribesman - Three Lions, Three Chords
TTITLE2=Taj Mahal and Toumani Diabate - Take This Hammer
TTITLE3=Bessie Jones - Sometimes
TTITLE4=Boy Blue, Willie Jones, Joe Lee - Joe Lee's rock
TTITLE5=Helen Humes - Married Man Blues
TTITLE6=Sonny Boy Williamson - Help Me
TTITLE7=Eddie "Mr Cleanhead" Vinson - Kidney Stew Blues
TTITLE8=John Lee Hooker - This Land is Nobody's Land
TTITLE9=Howlin Wolf - Red Rooster
TTITLE10=BB King - The Thrill Has Gone
TTITLE11=Buddy Guy - My Love Is Real
TTITLE12=Jimmy Reed - Shame Shame
TTITLE13=Dinah Washington - Long John Blues
TTITLE14=Muddy Waters - Rock Me
TTITLE15=Bo Diddley - I'm Bad
TTITLE16=Etta James - I Would Rather Go Blind
TTITLE17=Vera Hall - Trouble So Hard
EXTD=
EXTT0=
EXTT1=
EXTT2=
EXTT3=
EXTT4=
EXTT5=
EXTT6=
EXTT7=
EXTT8=
EXTT9=
EXTT10=
EXTT11=
EXTT12=
EXTT13=
EXTT14=
EXTT15=
EXTT16=
EXTT17=
PLAYORDER=
